<?xml version="1.0" encoding="UTF-8" standalone="no"?>
<!-- Created with Inkscape (http://www.inkscape.org/) -->

<svg
   width="64"
   height="64"
   viewBox="0 0 16.933333 16.933333"
   version="1.1"
   id="svg1"
   inkscape:export-filename="punktbilde.png"
   inkscape:export-xdpi="96"
   inkscape:export-ydpi="96"
   inkscape:version="1.3 (0e150ed6c4, 2023-07-21)"
   sodipodi:docname="filematch icon.svg"
   xmlns:inkscape="http://www.inkscape.org/namespaces/inkscape"
   xmlns:sodipodi="http://sodipodi.sourceforge.net/DTD/sodipodi-0.dtd"
   xmlns="http://www.w3.org/2000/svg"
   xmlns:svg="http://www.w3.org/2000/svg">
  <sodipodi:namedview
     id="namedview1"
     pagecolor="#ffffff"
     bordercolor="#000000"
     borderopacity="0.25"
     inkscape:showpageshadow="2"
     inkscape:pageopacity="0.0"
     inkscape:pagecheckerboard="0"
     inkscape:deskcolor="#d1d1d1"
     inkscape:document-units="mm"
     inkscape:zoom="11.822492"
     inkscape:cx="29.773757"
     inkscape:cy="33.368599"
     inkscape:window-width="2560"
     inkscape:window-height="1369"
     inkscape:window-x="1912"
     inkscape:window-y="-8"
     inkscape:window-maximized="1"
     inkscape:current-layer="layer1" />
  <defs
     id="defs1" />
  <g
     inkscape:label="Lag 1"
     inkscape:groupmode="layer"
     id="layer1">
    <g
       id="g12"
       transform="matrix(1.0444566,0.20475658,-0.20475658,1.0444566,1.0756686,-2.4180416)">
      <g
         id="g11"
         transform="matrix(0.80331959,0,0,0.80331959,-1.5855303,-4.1667083)">
        <path
           style="fill:#000000;stroke-width:0.298279"
           d="M 3.1667239,9.570784 C 3.9362327,9.1671073 8.7896001,7.7425922 9.4994021,7.6785492 c 0.7098029,-0.064043 1.0147029,-0.00873 1.4633279,0.605515 0.448626,0.6142475 1.469587,3.0892518 1.539018,3.8349288 0.06943,0.745677 -0.0052,1.108287 -0.378447,1.513787 C 11.75002,14.038281 5.7782321,16.085188 5.1851076,16.15576 4.591983,16.22633 4.1277106,16.0916 3.7974688,15.676393 3.4672271,15.261182 2.334568,11.916522 2.2836811,11.26118 2.2327943,10.605837 2.3972151,9.9744607 3.1667239,9.570784 Z"
           id="path10"
           sodipodi:nodetypes="zzzzzzzzz" />
        <path
           style="fill:#96e4e9;fill-opacity:1;stroke-width:0.274307"
           d="m 3.6219389,9.6252737 c 0.705108,-0.3725808 5.1522942,-1.6873628 5.8026922,-1.7464725 0.6503979,-0.059109 0.9297829,-0.00806 1.3408609,0.5588711 0.411079,0.5669309 1.346595,2.8512807 1.410216,3.5395167 0.06362,0.688237 -0.0048,1.022914 -0.346773,1.397178 -0.342041,0.374264 -5.8140469,2.263494 -6.3575324,2.32863 C 4.9279171,15.768132 4.5024999,15.643783 4.1998963,15.260556 3.8972928,14.87733 2.8594266,11.790316 2.8127986,11.185455 2.7661705,10.580595 2.9168308,9.9978543 3.6219389,9.6252737 Z"
           id="path11"
           sodipodi:nodetypes="zzzzzzzzz" />
      </g>
      <g
         id="g5"
         transform="matrix(0.80331959,0,0,0.80331959,1.2562569,-0.89762551)">
        <path
           style="fill:#000000;stroke-width:0.298279"
           d="M 7.0384048,6.3257335 C 7.8079136,5.9220568 12.661281,4.4975417 13.371083,4.4334987 c 0.709803,-0.064043 1.014703,-0.00873 1.463328,0.605515 0.448626,0.6142475 1.469587,3.0892514 1.539018,3.8349288 0.06943,0.7456773 -0.0052,1.1082866 -0.378447,1.5137875 -0.373281,0.405501 -6.345069,2.452408 -6.9381935,2.52298 C 8.4636639,12.98128 7.9993915,12.84655 7.6691497,12.431343 7.338908,12.016132 6.2062489,8.671472 6.155362,8.0161295 6.1044752,7.3607869 6.268896,6.7294102 7.0384048,6.3257335 Z"
           id="path1"
           sodipodi:nodetypes="zzzzzzzzz" />
        <path
           style="fill:#b0d4ab;fill-opacity:1;stroke-width:0.274307"
           d="m 7.4936198,6.3802232 c 0.705108,-0.3725808 5.1522942,-1.6873628 5.8026922,-1.7464725 0.650398,-0.059109 0.929783,-0.00806 1.340861,0.5588711 0.411079,0.5669309 1.346595,2.8512807 1.410216,3.5395172 0.06362,0.6882364 -0.0048,1.0229134 -0.346773,1.397178 -0.342041,0.374264 -5.814047,2.263494 -6.3575325,2.32863 C 8.799598,12.523082 8.3741808,12.398733 8.0715772,12.015506 7.7689737,11.63228 6.7311075,8.5452652 6.6844795,7.9404049 6.6378514,7.3355446 6.7885117,6.7528038 7.4936198,6.3802232 Z"
           id="path2"
           sodipodi:nodetypes="zzzzzzzzz" />
      </g>
      <g
         id="g4"
         transform="matrix(0.80331959,0,0,0.80331959,0.33542138,-0.07025265)">
        <path
           style="fill:#000000;stroke-width:0.298279"
           d="M 3.1667239,9.570784 C 3.9362327,9.1671073 8.7896001,7.7425922 9.4994021,7.6785492 c 0.7098029,-0.064043 1.0147029,-0.00873 1.4633279,0.605515 0.448626,0.6142475 1.469587,3.0892518 1.539018,3.8349288 0.06943,0.745677 -0.0052,1.108287 -0.378447,1.513787 C 11.75002,14.038281 5.7782321,16.085188 5.1851076,16.15576 4.591983,16.22633 4.1277106,16.0916 3.7974688,15.676393 3.4672271,15.261182 2.334568,11.916522 2.2836811,11.26118 2.2327943,10.605837 2.3972151,9.9744607 3.1667239,9.570784 Z"
           id="path3"
           sodipodi:nodetypes="zzzzzzzzz" />
        <path
           style="fill:#96e4e9;fill-opacity:1;stroke-width:0.274307"
           d="m 3.6219389,9.6252737 c 0.705108,-0.3725808 5.1522942,-1.6873628 5.8026922,-1.7464725 0.6503979,-0.059109 0.9297829,-0.00806 1.3408609,0.5588711 0.411079,0.5669309 1.346595,2.8512807 1.410216,3.5395167 0.06362,0.688237 -0.0048,1.022914 -0.346773,1.397178 -0.342041,0.374264 -5.8140469,2.263494 -6.3575324,2.32863 C 4.9279171,15.768132 4.5024999,15.643783 4.1998963,15.260556 3.8972928,14.87733 2.8594266,11.790316 2.8127986,11.185455 2.7661705,10.580595 2.9168308,9.9978543 3.6219389,9.6252737 Z"
           id="path4"
           sodipodi:nodetypes="zzzzzzzzz" />
      </g>
      <g
         id="g6"
         transform="matrix(0.80331959,0,0,0.80331959,3.5922394,2.5442586)">
        <path
           style="fill:#000000;stroke-width:0.298279"
           d="M 7.0384048,6.3257335 C 7.8079136,5.9220568 12.661281,4.4975417 13.371083,4.4334987 c 0.709803,-0.064043 1.014703,-0.00873 1.463328,0.605515 0.448626,0.6142475 1.469587,3.0892514 1.539018,3.8349288 0.06943,0.7456773 -0.0052,1.1082866 -0.378447,1.5137875 -0.373281,0.405501 -6.345069,2.452408 -6.9381935,2.52298 C 8.4636639,12.98128 7.9993915,12.84655 7.6691497,12.431343 7.338908,12.016132 6.2062489,8.671472 6.155362,8.0161295 6.1044752,7.3607869 6.268896,6.7294102 7.0384048,6.3257335 Z"
           id="path5"
           sodipodi:nodetypes="zzzzzzzzz" />
        <path
           style="fill:#b0d4ab;fill-opacity:1;stroke-width:0.274307"
           d="m 7.4936198,6.3802232 c 0.705108,-0.3725808 5.1522942,-1.6873628 5.8026922,-1.7464725 0.650398,-0.059109 0.929783,-0.00806 1.340861,0.5588711 0.411079,0.5669309 1.346595,2.8512807 1.410216,3.5395172 0.06362,0.6882364 -0.0048,1.0229134 -0.346773,1.397178 -0.342041,0.374264 -5.814047,2.263494 -6.3575325,2.32863 C 8.799598,12.523082 8.3741808,12.398733 8.0715772,12.015506 7.7689737,11.63228 6.7311075,8.5452652 6.6844795,7.9404049 6.6378514,7.3355446 6.7885117,6.7528038 7.4936198,6.3802232 Z"
           id="path6"
           sodipodi:nodetypes="zzzzzzzzz" />
      </g>
      <g
         id="g8"
         transform="matrix(0.80331959,0,0,0.80331959,2.4931785,3.8193616)">
        <path
           style="fill:#000000;stroke-width:0.298279"
           d="M 3.1667239,9.570784 C 3.9362327,9.1671073 8.7896001,7.7425922 9.4994021,7.6785492 c 0.7098029,-0.064043 1.0147029,-0.00873 1.4633279,0.605515 0.448626,0.6142475 1.469587,3.0892518 1.539018,3.8349288 0.06943,0.745677 -0.0052,1.108287 -0.378447,1.513787 C 11.75002,14.038281 5.7782321,16.085188 5.1851076,16.15576 4.591983,16.22633 4.1277106,16.0916 3.7974688,15.676393 3.4672271,15.261182 2.334568,11.916522 2.2836811,11.26118 2.2327943,10.605837 2.3972151,9.9744607 3.1667239,9.570784 Z"
           id="path7"
           sodipodi:nodetypes="zzzzzzzzz" />
        <path
           style="fill:#96e4e9;fill-opacity:1;stroke-width:0.274307"
           d="m 3.6219389,9.6252737 c 0.705108,-0.3725808 5.1522942,-1.6873628 5.8026922,-1.7464725 0.6503979,-0.059109 0.9297829,-0.00806 1.3408609,0.5588711 0.411079,0.5669309 1.346595,2.8512807 1.410216,3.5395167 0.06362,0.688237 -0.0048,1.022914 -0.346773,1.397178 -0.342041,0.374264 -5.8140469,2.263494 -6.3575324,2.32863 C 4.9279171,15.768132 4.5024999,15.643783 4.1998963,15.260556 3.8972928,14.87733 2.8594266,11.790316 2.8127986,11.185455 2.7661705,10.580595 2.9168308,9.9978543 3.6219389,9.6252737 Z"
           id="path8"
           sodipodi:nodetypes="zzzzzzzzz" />
      </g>
      <path
         style="fill:#000000;fill-opacity:0.390042;stroke-width:0.27885"
         d="m 9.0300199,8.4205021 c 0,0 -0.8384087,0.406088 -0.937045,0.9700987 -0.098637,0.5640119 0.1479544,1.1505832 0.1479544,1.1505832 L 9.0546789,10.270459 8.7094518,9.3680405 Z"
         id="path9" />
      <path
         style="fill:#000000;fill-opacity:0.390042;stroke-width:0.27885"
         d="m 6.6907157,4.653427 c 0,0 -0.8384087,0.406088 -0.937045,0.9700987 -0.098637,0.5640119 0.1479544,1.1505832 0.1479544,1.1505832 L 6.7153747,6.5033839 6.3701476,5.6009654 Z"
         id="path12" />
    </g>
  </g>
</svg>
