<?xml version="1.0" encoding="UTF-8" standalone="no"?>
<!-- Created with Inkscape (http://www.inkscape.org/) -->

<svg
   width="64"
   height="64"
   viewBox="0 0 16.933333 16.933333"
   version="1.1"
   id="svg1"
   inkscape:export-filename="filematch16.png"
   inkscape:export-xdpi="24"
   inkscape:export-ydpi="24"
   inkscape:version="1.3 (0e150ed6c4, 2023-07-21)"
   sodipodi:docname="filematch icon fat lines.svg"
   xmlns:inkscape="http://www.inkscape.org/namespaces/inkscape"
   xmlns:sodipodi="http://sodipodi.sourceforge.net/DTD/sodipodi-0.dtd"
   xmlns="http://www.w3.org/2000/svg"
   xmlns:svg="http://www.w3.org/2000/svg">
  <sodipodi:namedview
     id="namedview1"
     pagecolor="#ffffff"
     bordercolor="#000000"
     borderopacity="0.25"
     inkscape:showpageshadow="2"
     inkscape:pageopacity="0.0"
     inkscape:pagecheckerboard="0"
     inkscape:deskcolor="#d1d1d1"
     inkscape:document-units="mm"
     inkscape:zoom="11.822492"
     inkscape:cx="29.773757"
     inkscape:cy="33.368599"
     inkscape:window-width="2560"
     inkscape:window-height="1369"
     inkscape:window-x="1912"
     inkscape:window-y="-8"
     inkscape:window-maximized="1"
     inkscape:current-layer="g12" />
  <defs
     id="defs1" />
  <g
     inkscape:label="Lag 1"
     inkscape:groupmode="layer"
     id="layer1">
    <g
       id="g12"
       transform="matrix(1.0444566,0.20475658,-0.20475658,1.0444566,1.0756686,-2.4180416)">
      <g
         id="g11"
         transform="matrix(0.80331959,0,0,0.80331959,-1.5855303,-4.1667083)">
        <path
           style="fill:#000000;stroke-width:0.298279"
           d="M 3.1667239,9.570784 C 3.9362327,9.1671073 8.7896001,7.7425922 9.4994021,7.6785492 c 0.7098029,-0.064043 1.0147029,-0.00873 1.4633279,0.605515 0.448626,0.6142475 1.469587,3.0892518 1.539018,3.8349288 0.06943,0.745677 -0.0052,1.108287 -0.378447,1.513787 C 11.75002,14.038281 5.7782321,16.085188 5.1851076,16.15576 4.591983,16.22633 4.1277106,16.0916 3.7974688,15.676393 3.4672271,15.261182 2.334568,11.916522 2.2836811,11.26118 2.2327943,10.605837 2.3972151,9.9744607 3.1667239,9.570784 Z"
           id="path10"
           sodipodi:nodetypes="zzzzzzzzz" />
        <path
           style="fill:#96e4e9;fill-opacity:1;stroke-width:0.249937"
           d="M 3.8980262,9.9014066 C 4.5604716,9.5637594 8.7288583,8.3538541 9.3372312,8.2952286 9.945604,8.2366037 10.206219,8.2793349 10.58506,8.7791718 c 0.378841,0.4998368 1.231656,2.5206132 1.284648,3.1314882 0.05299,0.610876 -0.01409,0.908867 -0.337193,1.244599 -0.323164,0.335733 -5.4546725,2.06564 -5.9631889,2.128616 C 5.0608098,15.346849 4.6644117,15.240365 4.3852182,14.902724 4.1060249,14.565083 3.1650995,11.83213 3.1272051,11.295171 3.0893106,10.758213 3.2355807,10.239054 3.8980262,9.9014066 Z"
           id="path11"
           sodipodi:nodetypes="zzzzzzzzz" />
      </g>
      <g
         id="g5"
         transform="matrix(0.80331959,0,0,0.80331959,1.2562569,-0.89762551)">
        <path
           style="fill:#000000;stroke-width:0.298279"
           d="M 7.0384048,6.3257335 C 7.8079136,5.9220568 12.661281,4.4975417 13.371083,4.4334987 c 0.709803,-0.064043 1.014703,-0.00873 1.463328,0.605515 0.448626,0.6142475 1.469587,3.0892514 1.539018,3.8349288 0.06943,0.7456773 -0.0052,1.1082866 -0.378447,1.5137875 -0.373281,0.405501 -6.345069,2.452408 -6.9381935,2.52298 C 8.4636639,12.98128 7.9993915,12.84655 7.6691497,12.431343 7.338908,12.016132 6.2062489,8.671472 6.155362,8.0161295 6.1044752,7.3607869 6.268896,6.7294102 7.0384048,6.3257335 Z"
           id="path1"
           sodipodi:nodetypes="zzzzzzzzz" />
        <path
           style="fill:#b0d4ab;fill-opacity:1;stroke-width:0.248388"
           d="M 7.8085688,6.6487376 C 8.4623453,6.3127899 12.578317,5.11316 13.179316,5.0559802 c 0.600998,-0.057179 0.858612,-0.01386 1.234111,0.4866324 0.3755,0.5004918 1.222882,2.522333 1.276668,3.1330531 0.05379,0.61072 -0.01181,0.9084184 -0.330278,1.2432438 C 15.041281,10.253735 9.9748581,11.970882 9.4725386,12.032643 8.9702191,12.094403 8.5782887,11.987043 8.3016295,11.648905 8.0249703,11.310768 7.0888652,8.5768689 7.0501692,8.0400674 7.0114732,7.5032658 7.1547922,6.9846851 7.8085688,6.6487376 Z"
           id="path2"
           sodipodi:nodetypes="zzzzzzzzz" />
      </g>
      <g
         id="g4"
         transform="matrix(0.80331959,0,0,0.80331959,0.33542138,-0.07025265)">
        <path
           style="fill:#000000;stroke-width:0.298279"
           d="M 3.1667239,9.570784 C 3.9362327,9.1671073 8.7896001,7.7425922 9.4994021,7.6785492 c 0.7098029,-0.064043 1.0147029,-0.00873 1.4633279,0.605515 0.448626,0.6142475 1.469587,3.0892518 1.539018,3.8349288 0.06943,0.745677 -0.0052,1.108287 -0.378447,1.513787 C 11.75002,14.038281 5.7782321,16.085188 5.1851076,16.15576 4.591983,16.22633 4.1277106,16.0916 3.7974688,15.676393 3.4672271,15.261182 2.334568,11.916522 2.2836811,11.26118 2.2327943,10.605837 2.3972151,9.9744607 3.1667239,9.570784 Z"
           id="path3"
           sodipodi:nodetypes="zzzzzzzzz" />
        <path
           style="fill:#96e4e9;fill-opacity:1;stroke-width:0.24549"
           d="M 3.9646318,9.9323834 C 4.6147427,9.600697 8.7057716,8.4126531 9.3028872,8.3552005 9.9000027,8.2977486 10.155814,8.3398218 10.527795,8.831215 c 0.371982,0.4913931 1.209604,2.477843 1.261788,3.078284 0.05218,0.600442 -0.01358,0.893317 -0.330615,1.223216 -0.317098,0.3299 -5.3533083,2.028781 -5.8524112,2.090537 C 5.1074539,15.285008 4.7183503,15.180234 4.4442211,14.84829 4.170092,14.516347 3.2457875,11.829877 3.2084431,11.302092 3.1710986,10.774308 3.3145208,10.26407 3.9646318,9.9323834 Z"
           id="path4"
           sodipodi:nodetypes="zzzzzzzzz" />
      </g>
      <g
         id="g6"
         transform="matrix(0.80331959,0,0,0.80331959,3.5922394,2.5442586)">
        <path
           style="fill:#000000;stroke-width:0.298279"
           d="M 7.0384048,6.3257335 C 7.8079136,5.9220568 12.661281,4.4975417 13.371083,4.4334987 c 0.709803,-0.064043 1.014703,-0.00873 1.463328,0.605515 0.448626,0.6142475 1.469587,3.0892514 1.539018,3.8349288 0.06943,0.7456773 -0.0052,1.1082866 -0.378447,1.5137875 -0.373281,0.405501 -6.345069,2.452408 -6.9381935,2.52298 C 8.4636639,12.98128 7.9993915,12.84655 7.6691497,12.431343 7.338908,12.016132 6.2062489,8.671472 6.155362,8.0161295 6.1044752,7.3607869 6.268896,6.7294102 7.0384048,6.3257335 Z"
           id="path5"
           sodipodi:nodetypes="zzzzzzzzz" />
        <path
           style="fill:#b0d4ab;fill-opacity:1;stroke-width:0.24683"
           d="M 7.8474305,6.6411191 C 8.4925382,6.3068708 12.556096,5.1175163 13.149719,5.0617823 c 0.593624,-0.055733 0.848236,-0.011825 1.220394,0.4893215 0.372159,0.5011469 1.214108,2.5240532 1.268688,3.1346176 0.05458,0.6105643 -0.0095,0.9079699 -0.323363,1.2418883 C 15.00153,10.261528 10.000193,11.965916 9.5040702,12.026462 9.0079476,12.087007 8.6204849,11.978771 8.3463598,11.640136 8.0722348,11.301502 7.1409499,8.5666582 7.1014524,8.0300138 7.0619548,7.4933693 7.2023227,6.9753672 7.8474305,6.6411191 Z"
           id="path6"
           sodipodi:nodetypes="zzzzzzzzz" />
      </g>
      <g
         id="g8"
         transform="matrix(0.80331959,0,0,0.80331959,2.4931785,3.8193616)">
        <path
           style="fill:#000000;stroke-width:0.298279"
           d="M 3.1667239,9.570784 C 3.9362327,9.1671073 8.7896001,7.7425922 9.4994021,7.6785492 c 0.7098029,-0.064043 1.0147029,-0.00873 1.4633279,0.605515 0.448626,0.6142475 1.469587,3.0892518 1.539018,3.8349288 0.06943,0.745677 -0.0052,1.108287 -0.378447,1.513787 C 11.75002,14.038281 5.7782321,16.085188 5.1851076,16.15576 4.591983,16.22633 4.1277106,16.0916 3.7974688,15.676393 3.4672271,15.261182 2.334568,11.916522 2.2836811,11.26118 2.2327943,10.605837 2.3972151,9.9744607 3.1667239,9.570784 Z"
           id="path7"
           sodipodi:nodetypes="zzzzzzzzz" />
        <path
           style="fill:#96e4e9;fill-opacity:1;stroke-width:0.243037"
           d="m 3.9576705,9.9997996 c 0.6554486,-0.3274188 4.7745809,-1.5109281 5.3750912,-1.570597 0.6005101,-0.059668 0.8573693,-0.0202 1.2282483,0.4567263 0.370881,0.4769262 1.200656,2.4089571 1.249443,2.9941751 0.04878,0.585219 -0.0191,0.871226 -0.339762,1.194869 -0.320728,0.323645 -5.392976,2.011078 -5.895,2.074345 C 5.0736669,15.212585 4.6832188,15.112786 4.4097169,14.790754 4.1362152,14.468723 3.2235865,11.854578 3.1892713,11.340121 3.154956,10.825666 3.3022219,10.327218 3.9576705,9.9997996 Z"
           id="path8"
           sodipodi:nodetypes="zzzzzzzzz" />
      </g>
      <path
         style="fill:#000000;fill-opacity:0.390042;stroke-width:0.325338"
         d="m 9.1538243,8.3962313 c 0,0 -1.1577453,0.4686911 -1.3291546,1.0469684 C 7.6532593,10.021478 7.945628,10.599075 7.945628,10.599075 L 9.0609055,10.269238 8.6571291,9.3782979 Z"
         id="path9" />
      <path
         style="fill:#000000;fill-opacity:0.390042;stroke-width:0.312762"
         d="m 6.6907157,4.653427 c 0,0 -1.0665063,0.4508045 -1.2171233,1.0250056 C 5.3229744,6.2526349 5.6022639,6.832796 5.6022639,6.832796 L 6.6313906,6.5198483 6.2443425,5.6256284 Z"
         id="path12" />
    </g>
  </g>
</svg>
